<svg y="256" x="311" viewBox="0 0 512 512" height="512" width="512" xmlns:svg="http://www.w3.org/2000/svg" xmlns="http://www.w3.org/2000/svg">
 <defs>
  <pattern id="gridpattern" patternUnits="userSpaceOnUse" x="0" y="0" width="100" height="100">
   <image id="svg_4" x="0" y="0" width="100" height="100"/>
  </pattern>
 </defs>
 <title>Share my location3</title>
 <g>
  <title>Layer 1</title>
  <path class="cls-1" d="m256.85,0a171.88,171.88 0 0 0 -171.85,171.89a170.18,170.18 0 0 0 18.11,76.88a171.59,171.59 0 0 0 11,19l106.37,182.1l36.37,62.13l36.29,-62.18l106.37,-182.1a171.59,171.59 0 0 0 11.05,-19a169.34,169.34 0 0 0 11.95,-31a171.71,171.71 0 0 0 6.16,-45.86c0.03,-94.86 -76.92,-171.86 -171.82,-171.86zm98.28,195.65a105.29,105.29 0 0 1 -7.04,18.35a104.11,104.11 0 0 1 -6.61,11.31a102,102 0 0 1 -169.26,0a94.74,94.74 0 0 1 -6.55,-11.31a95.85,95.85 0 0 1 -7.06,-18.37a99.91,99.91 0 0 1 -3.76,-27.21a102,102 0 1 1 200.28,27.23z" id="svg_1" fill="#00f26d"/>
  <circle fill="#ffffff" stroke="#231f20" stroke-width="30" stroke-dasharray="null" stroke-linejoin="null" stroke-linecap="null" cx="257.85501" cy="173" r="94.3716" id="svg_3"/>
  <circle stroke="#ffd051" fill="#ffffff" stroke-width="23" stroke-dasharray="null" stroke-linejoin="null" stroke-linecap="null" cx="258.28998" cy="174" r="78.37157" id="svg_2"/>
 </g>
</svg>
