<svg width="33" height="28" viewBox="0 0 33 28" fill="none" xmlns="http://www.w3.org/2000/svg">
<path id="Vector" fill-rule="evenodd" clip-rule="evenodd" d="M3.98255 4.09382C2.64424 5.61863 1.83333 7.70194 1.83333 9.87692C1.83333 14.7526 5.46764 18.8454 9.30499 21.7909C11.2049 23.2494 13.1093 24.3911 14.5406 25.1686C15.2553 25.5568 15.8495 25.8528 16.2629 26.051C16.3453 26.0904 16.4204 26.126 16.4879 26.1576C16.5571 26.1234 16.6344 26.0849 16.7194 26.0419C17.1337 25.8327 17.729 25.5213 18.4449 25.1158C19.8785 24.3039 21.7859 23.1207 23.6889 21.6334C27.5401 18.6239 31.1667 14.5319 31.1667 9.87692C31.1667 7.70227 30.3559 5.61896 29.0176 4.09407C27.6838 2.57418 25.8623 1.64143 23.8047 1.64143C20.9605 1.64143 18.7545 3.29994 17.3228 5.91064L16.5 7.41116L15.6772 5.91064C14.2455 3.29978 12.0394 1.64143 9.19527 1.64143C7.1379 1.64143 5.31639 2.57402 3.98255 4.09382ZM16.5 27.0837C16.1024 27.8231 16.1017 27.8229 16.1017 27.8229L16.0976 27.8211L16.0871 27.8165L16.0496 27.8001C16.0174 27.7858 15.9708 27.765 15.9109 27.7379C15.7909 27.6834 15.6173 27.6033 15.3979 27.4982C14.9591 27.2879 14.3358 26.9773 13.5896 26.5719C12.0991 25.7622 10.1076 24.5692 8.11168 23.0371C4.15736 20.0018 0 15.4912 0 9.87692C0 7.35297 0.936128 4.90822 2.54102 3.07966C4.1503 1.24604 6.46809 0 9.19527 0C12.4069 0 14.8492 1.61137 16.5 3.88511C18.1507 1.61148 20.593 0 23.8047 0C26.5322 0 28.85 1.24626 30.4592 3.07991C32.064 4.90863 33 7.35338 33 9.87692C33 15.2793 28.8349 19.7907 24.8945 22.8701C22.9016 24.4274 20.9132 25.6601 19.4249 26.503C18.6798 26.925 18.0577 27.2507 17.6199 27.4717C17.4009 27.5823 17.2278 27.6668 17.1083 27.7242C17.0486 27.7529 17.0022 27.7748 16.9702 27.7898L16.933 27.8071L16.9227 27.8119L16.9197 27.8134L16.9186 27.8138C16.9186 27.8138 16.918 27.8141 16.5 27.0837ZM16.5 27.0837L16.9186 27.8138L16.5127 28L16.1017 27.8229L16.5 27.0837Z" fill="black"/>
</svg>
