<svg width="29" height="24" viewBox="0 0 29 24" fill="none" xmlns="http://www.w3.org/2000/svg">
<g id="Share icon">
<path id="Vector" d="M18.92 13.2696H20.04V12.3529H18.92V13.2696ZM18.92 16.8892H17.8C17.8 17.2528 18.0625 17.582 18.4691 17.7284C18.8759 17.8747 19.3498 17.8105 19.6771 17.5647L18.92 16.8892ZM18.92 7.06442V7.98109H20.04V7.06442H18.92ZM18.92 3.44476L19.6765 2.76877C19.349 2.52329 18.8752 2.45936 18.4688 2.60577C18.0623 2.75219 17.8 3.08131 17.8 3.44476H18.92ZM27.88 10.1612L28.6371 10.8368C28.8685 10.6631 29.0002 10.4178 29 10.1609C28.9999 9.90396 28.868 9.65878 28.6365 9.48528L27.88 10.1612ZM6.97325 16.3721H5.85324C5.85324 16.7154 6.08765 17.03 6.46063 17.1871C6.83362 17.3442 7.28261 17.3176 7.62403 17.1181L6.97325 16.3721ZM17.8 13.2696V16.8892H20.04V13.2696H17.8ZM20.04 7.06442V3.44476H17.8V7.06442H20.04ZM18.1634 4.12075L27.1235 10.8372L28.6365 9.48528L19.6765 2.76877L18.1634 4.12075ZM19.6771 17.5647L28.6371 10.8368L27.1229 9.4858L18.1628 16.2137L19.6771 17.5647ZM18.92 12.3529C15.9121 12.3529 14.2003 12.3452 12.5751 12.7114L13.1696 14.479C14.4355 14.1938 15.7917 14.1863 18.92 14.1863V12.3529ZM7.62403 17.1181C10.1272 15.6555 11.2132 15.0304 12.442 14.6679L11.6823 12.9433C10.0966 13.4111 8.72817 14.2204 6.32246 15.626L7.62403 17.1181ZM12.5751 12.7114C12.2737 12.7794 11.9759 12.8567 11.6823 12.9433L12.442 14.6679C12.6811 14.5974 12.9238 14.5345 13.1696 14.479L12.5751 12.7114ZM18.92 6.14775C17.0791 6.14775 15.6449 6.14731 14.4895 6.20874C13.325 6.27065 12.3648 6.39819 11.479 6.68402L12.3007 8.38955C12.8787 8.20306 13.5778 8.09441 14.6348 8.03821C15.7008 7.98154 17.0499 7.98109 18.92 7.98109V6.14775ZM8.09325 16.3721C8.09325 14.9132 8.09392 13.8674 8.16617 13.0425C8.23761 12.2267 8.37492 11.6962 8.6065 11.2608L6.55251 10.5293C6.17782 11.234 6.01201 11.9965 5.93188 12.9114C5.85257 13.8172 5.85324 14.9396 5.85324 16.3721H8.09325ZM11.479 6.68402C9.26231 7.39937 7.48389 8.77737 6.55251 10.5293L8.6065 11.2608C9.29181 9.97167 10.6144 8.93376 12.3007 8.38955L11.479 6.68402Z" fill="#141B34"/>
<path id="Vector_2" d="M14.4401 1H1V23H27.8801V15.6667" stroke="#141B34" stroke-width="1.5" stroke-linejoin="round"/>
</g>
</svg>
